PathFileType	4	(X/Y/Z)	E:\Qualisys_Data\Carbon_Farble_Plate\Data\Amateur_Runner\S2\T1\S2T1V11_c3d.trc
DataRate	CameraRate	NumFrames	NumMarkers	Units	OrigDataRate	OrigDataStartFrame	OrigNumFrames
200.000000	200.000000	4	39	mm	200.000000	246	328
Frame#	Time	LSHO			RSHO			LICST			RICST			LASIS			LHEEL			RASIS			LTROC			RTROC			SACR			LTH1			LSK4			LTH2			LTH3			RHM5			LSK2			LTH4			RTH1			LTOE			RTH2			RTH3			RTH4			LLEP			RLEP			LSK1			LSK3			RSK1			LHM5			RSK2			LFT1			RSK3			RSK4			LLME			RLME			RTOE			RHEEL			RFT1			RFT2			LFT2			
		X1	Y1	Z1	X2	Y2	Z2	X3	Y3	Z3	X4	Y4	Z4	X5	Y5	Z5	X6	Y6	Z6	X7	Y7	Z7	X8	Y8	Z8	X9	Y9	Z9	X10	Y10	Z10	X11	Y11	Z11	X12	Y12	Z12	X13	Y13	Z13	X14	Y14	Z14	X15	Y15	Z15	X16	Y16	Z16	X17	Y17	Z17	X18	Y18	Z18	X19	Y19	Z19	X20	Y20	Z20	X21	Y21	Z21	X22	Y22	Z22	X23	Y23	Z23	X24	Y24	Z24	X25	Y25	Z25	X26	Y26	Z26	X27	Y27	Z27	X28	Y28	Z28	X29	Y29	Z29	X30	Y30	Z30	X31	Y31	Z31	X32	Y32	Z32	X33	Y33	Z33	X34	Y34	Z34	X35	Y35	Z35	X36	Y36	Z36	X37	Y37	Z37	X38	Y38	Z38	X39	Y39	Z39	

247	1.23	1027.336791992188	1465.876953125	-451.3068237304688	1110.11669921875	1449.752319335938	-151.7954559326172	1039.290405273438	1003.846984863281	-435.5484313964844	1074.34033203125	998.0076293945312	-137.3502655029297	1100.988525390625	957.34375	-419.0407104492188	1174.13671875	72.69322967529297	-298.80517578125	1128.795288085938	948.5398559570312	-162.7417297363281	978.6087036132812	877.1690673828125	-435.7403869628906	972.2349243164062	913.7816162109376	-123.3297348022461	959.9462280273438	1040.860595703125	-274.5109558105469	1171.448974609375	661.5742797851562	-444.1736145019531	1149.523315429688	273.5628662109375	-398.0839233398438	1091.53125	632.35205078125	-442.3685302734375	1203.419311523438	569.4537963867188	-408.6067810058594	512.965576171875	200.0722351074219	-133.7667236328125	1140.282470703125	371.1827392578125	-415.8031921386719	1122.46826171875	542.7247314453125	-409.0755920410156	1023.779357910156	629.9971923828125	-120.3987655639648	1398.256469726562	158.14208984375	-344.950439453125	951.7271118164062	654.3228149414062	-115.3657760620117	992.5301513671876	534.6272583007812	-128.9932403564453	917.4049682617188	562.6128540039062	-131.0440521240234	1174.08935546875	511.378662109375	-406.5573425292969	924.8648071289062	521.7111206054688	-124.3123397827148	1218.097290039062	379.5528564453125	-409.0701904296875	1228.295166015625	280.9593200683594	-395.0447082519531	841.1111450195312	432.3606262207031	-117.4522933959961	1355.524658203125	111.1379547119141	-400.2726135253906	806.0455322265625	504.3141174316406	-117.7927551269531	1199.096557617188	58.30875396728516	-272.5553588867188	750.2918701171875	386.458740234375	-124.6290054321289	718.7542114257812	459.0001220703125	-130.4739227294922	1222.122314453125	99.68859100341795	-363.4788208007812	565.80126953125	338.28515625	-156.0613403320312	544.5755004882812	144.7233123779297	-190.8143920898438	558.03564453125	390.6401672363281	-216.1659851074219	538.1729736328125	372.8373718261719	-251.4367523193359	527.2378540039062	389.1199035644531	-197.5168762207031	1186.844482421875	44.79622268676758	-324.2045593261719
248	1.235	1043.875122070312	1461.098876953125	-452.4471130371094	1125.61669921875	1445.73486328125	-152.4197235107422	1054.941772460938	1000.015380859375	-435.2975158691406	1090.005981445312	993.9055786132812	-137.349853515625	1116.624877929688	953.6990356445312	-419.4180908203125	1184.256591796875	72.59254455566406	-297.6149597167969	1144.806640625	944.6548461914062	-162.7291564941406	994.8087158203124	872.8616943359375	-435.61279296875	988.7692260742188	908.7656860351562	-123.1311264038086	976.0039672851562	1036.640991210938	-274.6380615234375	1189.580932617188	658.9817504882812	-441.5129089355469	1164.03662109375	270.2565002441406	-397.4044494628906	1109.787841796875	630.4617309570312	-439.4069213867188	1221.11572265625	567.2783813476562	-406.5884094238281	528.277099609375	204.5137023925781	-133.1827545166016	1156.062377929688	367.2919921875	-414.707763671875	1140.642456054688	540.3980712890625	-407.8144836425781	1043.353515625	625.2920532226562	-118.764404296875	1410.357299804688	151.6514434814453	-338.8155212402344	970.5443115234376	648.6105346679688	-114.8432922363281	1013.171691894531	529.4284057617188	-126.9813385009766	937.6133422851562	556.4247436523438	-130.5586853027344	1190.588745117188	508.0774536132812	-404.9299621582031	945.8932495117188	516.12646484375	-123.1096649169922	1233.838989257812	375.3898620605469	-407.31884765625	1243.069702148438	277.0245971679688	-393.2424011230469	861.5599975585938	428.8481750488281	-116.0595703125	1368.343872070312	105.0885543823242	-395.490966796875	828.0025024414062	501.3228149414062	-117.5915145874023	1208.105712890625	56.98545074462891	-271.7882995605469	769.0231323242188	384.6717224121094	-124.0405426025391	739.3519897460938	458.0393981933594	-130.7335815429688	1234.348022460938	95.52385711669922	-361.6566772460938	584.3800048828125	341.361328125	-156.7308654785156	559.2951049804688	148.2601470947266	-189.1366882324219	577.6847534179688	393.9033813476562	-216.9160614013672	558.0510864257812	375.9449462890625	-252.5484771728516	547.0708618164062	392.6131286621094	-198.5895538330078	1196.360473632812	44.22888946533203	-323.7034606933594
249	1.24	1060.588256835938	1456.322265625	-453.4968872070312	1141.456665039062	1441.427734375	-152.8141937255859	1069.619873046875	995.7581176757812	-434.5267028808594	1105.595703125	989.3153686523438	-137.5957641601562	1132.59521484375	950.0986938476562	-419.4674682617188	1194.228759765625	71.57279205322266	-296.2135620117188	1160.628662109375	940.4132080078124	-162.6976623535156	1010.845031738281	868.3445434570312	-435.0290222167969	1005.26611328125	903.2232055664062	-122.9327163696289	991.9030151367188	1031.95849609375	-274.8757019042969	1207.60302734375	656.8243408203125	-438.7279357910156	1178.6796875	266.5618286132812	-396.8784790039062	1127.855590820312	628.7351684570312	-436.5960693359375	1238.515991210938	564.5794677734375	-404.2603759765625	544.2784423828125	208.8221282958984	-132.6285705566406	1171.500732421875	363.6842041015625	-414.3072814941406	1157.930297851562	537.9436645507812	-406.5752258300781	1062.927490234375	620.5654907226562	-117.0938873291016	1421.401489257812	143.5201416015625	-333.3258361816406	990.2595825195312	642.5999145507812	-114.2430725097656	1034.265258789062	524.1471557617188	-125.2154388427734	958.2700805664062	550.089111328125	-130.0517120361328	1207.556396484375	504.5424499511719	-403.1012268066406	967.0846557617188	510.3714904785156	-121.3819122314453	1249.42529296875	370.9942626953125	-405.6870727539062	1257.33203125	272.3357238769531	-391.4293518066406	881.6083374023438	424.6810607910156	-115.0577163696289	1379.152954101562	98.71566772460938	-391.5531005859375	849.9469604492188	498.0359802246094	-116.9445648193359	1216.748291015625	54.58880996704102	-269.5969848632812	788.4147338867188	382.8831787109375	-123.7475891113281	760.5416870117188	456.9620361328125	-130.3262939453125	1245.414916992188	92.60202026367188	-359.8872680664062	602.970703125	344.8289794921875	-156.9593200683594	574.91796875	151.8393402099609	-187.6675720214844	598.8145751953125	395.6885681152344	-217.7805023193359	578.553466796875	378.6155395507812	-253.5041809082031	566.8724975585938	396.8589782714844	-199.0954284667969	1204.51904296875	43.85227203369141	-322.1186218261719
250	1.245	1077.318237304688	1451.378173828125	-454.8615417480469	1157.221313476562	1437.176391601562	-153.6528930664062	1084.978759765625	991.4764404296876	-434.8682861328125	1121.22900390625	984.5640869140624	-137.1224517822266	1148.120483398438	945.9282836914062	-419.7896423339844	1202.101440429688	72.50169372558594	-294.0679626464844	1176.545776367188	936.1013793945312	-162.9402465820312	1026.903076171875	864.2971801757812	-434.9951477050781	1021.502258300781	897.423095703125	-122.3935165405273	1007.679260253906	1027.205444335938	-274.6699523925781	1224.091430664062	654.1026611328125	-435.0199584960938	1192.835327148438	262.3194274902344	-396.0018615722656	1145.676635742188	626.8803100585938	-433.1981506347656	1255.425048828125	561.3434448242188	-402.5339050292969	561.2310791015625	214.9312744140625	-133.2152709960938	1187.192016601562	359.884765625	-413.6377563476562	1175.178833007812	535.1687622070312	-405.3885498046875	1082.733520507812	615.397705078125	-115.7353515625	1430.527587890625	133.2749176025391	-327.9909362792969	1009.445617675781	636.8807983398438	-113.6645965576172	1055.269165039062	518.608154296875	-123.3982849121094	979.0010375976562	543.768798828125	-128.9093780517578	1224.311767578125	501.0190734863281	-402.0059509277344	988.843505859375	504.5015563964844	-120.2820739746094	1264.937133789062	366.1028747558594	-403.6810607910156	1271.663208007812	267.5044555664062	-389.3195495605469	902.4896850585938	420.310302734375	-113.5326385498047	1387.407836914062	91.26496124267578	-387.3116149902344	872.6264038085938	494.5210266113281	-116.1256332397461	1224.3681640625	52.43029403686523	-268.2393188476562	808.1433715820312	381.7715454101562	-122.8770370483398	781.9088134765625	455.2781372070312	-130.3904418945312	1254.238037109375	90.59022521972656	-358.2072448730469	622.1581420898438	347.7467956542969	-157.7442169189453	591.0806884765625	155.22021484375	-186.2634582519531	619.1097412109375	398.9717712402344	-219.3374633789062	599.5679931640625	381.0113220214844	-254.8589935302734	587.8680419921875	400.1731567382812	-201.0756988525391	1210.785278320312	45.02495574951172	-320.7571411132812
